<?xml version="1.0" encoding="UTF-8" standalone="no"?>
<!DOCTYPE svg PUBLIC "-//W3C//DTD SVG 1.1//EN"
 "http://www.w3.org/Graphics/SVG/1.1/DTD/svg11.dtd">
<!-- Generated by graphviz version 9.0.0 (20230911.1827)
 -->
<!-- Title: G Pages: 1 -->
<svg width="670pt" height="550pt"
 viewBox="0.00 0.00 669.68 550.02" xmlns="http://www.w3.org/2000/svg" xmlns:xlink="http://www.w3.org/1999/xlink">
<g id="graph0" class="graph" transform="scale(1 1) rotate(0) translate(4 546.02)">
<title>G</title><style>.edge>path:hover{stroke-width:8}</style>
<polygon fill="white" stroke="none" points="-4,4 -4,-546.02 665.68,-546.02 665.68,4 -4,4"/>
<!-- fastapi -->
<g id="node1" class="node">
<title>fastapi</title><style>.edge>path:hover{stroke-width:8}</style>
<ellipse fill="#821717" stroke="black" cx="179.83" cy="-127" rx="27" ry="18"/>
<text text-anchor="middle" x="179.83" y="-123.5" font-family="Helvetica,sans-Serif" font-size="10.00" fill="#ffffff">fastapi</text>
</g>
<!-- route_py -->
<g id="node11" class="node">
<title>route_py</title><style>.edge>path:hover{stroke-width:8}</style>
<ellipse fill="#569f56" stroke="black" cx="124.83" cy="-18" rx="30.82" ry="18"/>
<text text-anchor="middle" x="124.83" y="-14.5" font-family="Helvetica,sans-Serif" font-size="10.00" fill="#000000">route.py</text>
</g>
<!-- fastapi&#45;&gt;route_py -->
<g id="edge1" class="edge">
<title>fastapi&#45;&gt;route_py</title><style>.edge>path:hover{stroke-width:8}</style>
<path fill="none" stroke="black" d="M159.42,-114.73C145.64,-105.62 129.19,-91.32 124.83,-73"/>
</g>
<!-- fastapi_applications -->
<g id="node2" class="node">
<title>fastapi_applications</title><style>.edge>path:hover{stroke-width:8}</style>
<ellipse fill="#8f3d3d" stroke="black" cx="141.83" cy="-203.63" rx="47.91" ry="22.63"/>
<text text-anchor="middle" x="141.83" y="-206.13" font-family="Helvetica,sans-Serif" font-size="10.00" fill="#ffffff">fastapi.</text>
<text text-anchor="middle" x="141.83" y="-194.13" font-family="Helvetica,sans-Serif" font-size="10.00" fill="#ffffff">applications</text>
</g>
<!-- fastapi_applications&#45;&gt;fastapi -->
<g id="edge2" class="edge">
<title>fastapi_applications&#45;&gt;fastapi</title><style>.edge>path:hover{stroke-width:8}</style>
<path fill="none" stroke="black" d="M152.62,-181.44C156.86,-173.11 161.78,-163.45 166.26,-154.65"/>
<polygon fill="#8f3d3d" stroke="black" points="169.33,-156.34 170.75,-145.84 163.09,-153.16 169.33,-156.34"/>
</g>
<!-- fastapi_background -->
<g id="node3" class="node">
<title>fastapi_background</title><style>.edge>path:hover{stroke-width:8}</style>
<ellipse fill="#b34c4c" stroke="black" cx="614.83" cy="-284.88" rx="46.85" ry="22.63"/>
<text text-anchor="middle" x="614.83" y="-287.38" font-family="Helvetica,sans-Serif" font-size="10.00" fill="#ffffff">fastapi.</text>
<text text-anchor="middle" x="614.83" y="-275.38" font-family="Helvetica,sans-Serif" font-size="10.00" fill="#ffffff">background</text>
</g>
<!-- fastapi_background&#45;&gt;fastapi -->
<g id="edge3" class="edge">
<title>fastapi_background&#45;&gt;fastapi</title><style>.edge>path:hover{stroke-width:8}</style>
<path fill="none" stroke="black" d="M577.8,-270.72C516.78,-248.98 401.44,-207.66 397.83,-204.63"/>
</g>
<!-- fastapi_datastructures -->
<g id="node4" class="node">
<title>fastapi_datastructures</title><style>.edge>path:hover{stroke-width:8}</style>
<ellipse fill="#cc3333" stroke="black" cx="314.83" cy="-366.14" rx="55.33" ry="22.63"/>
<text text-anchor="middle" x="314.83" y="-368.64" font-family="Helvetica,sans-Serif" font-size="10.00" fill="#ffffff">fastapi.</text>
<text text-anchor="middle" x="314.83" y="-356.64" font-family="Helvetica,sans-Serif" font-size="10.00" fill="#ffffff">datastructures</text>
</g>
<!-- fastapi_datastructures&#45;&gt;fastapi -->
<g id="edge4" class="edge">
<title>fastapi_datastructures&#45;&gt;fastapi</title><style>.edge>path:hover{stroke-width:8}</style>
<path fill="none" stroke="black" d="M359.83,-283.88C353.4,-245.35 427.75,-229.75 397.83,-204.63"/>
</g>
<!-- fastapi_datastructures&#45;&gt;fastapi_applications -->
<g id="edge5" class="edge">
<title>fastapi_datastructures&#45;&gt;fastapi_applications</title><style>.edge>path:hover{stroke-width:8}</style>
<path fill="none" stroke="black" d="M336.14,-344.85C349.48,-329.7 363.5,-307.89 359.83,-285.88"/>
<path fill="none" stroke="black" d="M359.83,-283.88C356.95,-266.65 257.76,-236.35 194.18,-218.62"/>
<polygon fill="#cc3333" stroke="black" points="195.17,-215.27 184.6,-215.98 193.3,-222.01 195.17,-215.27"/>
</g>
<!-- fastapi_routing -->
<g id="node9" class="node">
<title>fastapi_routing</title><style>.edge>path:hover{stroke-width:8}</style>
<ellipse fill="#993333" stroke="black" cx="279.83" cy="-284.88" rx="33.59" ry="22.63"/>
<text text-anchor="middle" x="279.83" y="-287.38" font-family="Helvetica,sans-Serif" font-size="10.00" fill="#ffffff">fastapi.</text>
<text text-anchor="middle" x="279.83" y="-275.38" font-family="Helvetica,sans-Serif" font-size="10.00" fill="#ffffff">routing</text>
</g>
<!-- fastapi_datastructures&#45;&gt;fastapi_routing -->
<g id="edge6" class="edge">
<title>fastapi_datastructures&#45;&gt;fastapi_routing</title><style>.edge>path:hover{stroke-width:8}</style>
<path fill="none" stroke="black" d="M305.27,-343.48C301.7,-335.4 297.57,-326.05 293.69,-317.27"/>
<polygon fill="#cc3333" stroke="black" points="296.99,-316.08 289.75,-308.35 290.59,-318.91 296.99,-316.08"/>
</g>
<!-- fastapi_exceptions -->
<g id="node5" class="node">
<title>fastapi_exceptions</title><style>.edge>path:hover{stroke-width:8}</style>
<ellipse fill="#cc3333" stroke="black" cx="158.83" cy="-366.14" rx="44.72" ry="22.63"/>
<text text-anchor="middle" x="158.83" y="-368.64" font-family="Helvetica,sans-Serif" font-size="10.00" fill="#ffffff">fastapi.</text>
<text text-anchor="middle" x="158.83" y="-356.64" font-family="Helvetica,sans-Serif" font-size="10.00" fill="#ffffff">exceptions</text>
</g>
<!-- fastapi_exceptions&#45;&gt;fastapi -->
<g id="edge7" class="edge">
<title>fastapi_exceptions&#45;&gt;fastapi</title><style>.edge>path:hover{stroke-width:8}</style>
<path fill="none" stroke="black" d="M217.83,-283.88C222.24,-237.7 204.83,-185.63 192.12,-154.88"/>
<polygon fill="#cc3333" stroke="black" points="195.46,-153.77 188.3,-145.96 189.02,-156.53 195.46,-153.77"/>
</g>
<!-- fastapi_exceptions&#45;&gt;fastapi_applications -->
<g id="edge8" class="edge">
<title>fastapi_exceptions&#45;&gt;fastapi_applications</title><style>.edge>path:hover{stroke-width:8}</style>
<path fill="none" stroke="black" d="M182.13,-346.41C197.61,-331.86 215.51,-310.13 217.83,-285.88"/>
<path fill="none" stroke="black" d="M217.83,-283.88C220.09,-260.24 202.14,-240.83 183.13,-227.14"/>
<polygon fill="#cc3333" stroke="black" points="185.3,-224.39 175.05,-221.73 181.41,-230.2 185.3,-224.39"/>
</g>
<!-- fastapi_exceptions&#45;&gt;fastapi_routing -->
<g id="edge9" class="edge">
<title>fastapi_exceptions&#45;&gt;fastapi_routing</title><style>.edge>path:hover{stroke-width:8}</style>
<path fill="none" stroke="black" d="M185.68,-347.55C203.71,-335.74 227.57,-320.11 246.77,-307.54"/>
<polygon fill="#cc3333" stroke="black" points="248.61,-310.52 255.05,-302.11 244.77,-304.66 248.61,-310.52"/>
</g>
<!-- fastapi_param_functions -->
<g id="node6" class="node">
<title>fastapi_param_functions</title><style>.edge>path:hover{stroke-width:8}</style>
<ellipse fill="#b34c4c" stroke="black" cx="307.83" cy="-203.63" rx="61.7" ry="22.63"/>
<text text-anchor="middle" x="307.83" y="-206.13" font-family="Helvetica,sans-Serif" font-size="10.00" fill="#ffffff">fastapi.</text>
<text text-anchor="middle" x="307.83" y="-194.13" font-family="Helvetica,sans-Serif" font-size="10.00" fill="#ffffff">param_functions</text>
</g>
<!-- fastapi_param_functions&#45;&gt;fastapi -->
<g id="edge10" class="edge">
<title>fastapi_param_functions&#45;&gt;fastapi</title><style>.edge>path:hover{stroke-width:8}</style>
<path fill="none" stroke="black" d="M275.86,-183.99C255.56,-172.15 229.46,-156.93 209.59,-145.35"/>
<polygon fill="#b34c4c" stroke="black" points="211.55,-142.44 201.15,-140.43 208.02,-148.49 211.55,-142.44"/>
</g>
<!-- fastapi_requests -->
<g id="node7" class="node">
<title>fastapi_requests</title><style>.edge>path:hover{stroke-width:8}</style>
<ellipse fill="#b83d3d" stroke="black" cx="37.83" cy="-203.63" rx="37.83" ry="22.63"/>
<text text-anchor="middle" x="37.83" y="-206.13" font-family="Helvetica,sans-Serif" font-size="10.00" fill="#ffffff">fastapi.</text>
<text text-anchor="middle" x="37.83" y="-194.13" font-family="Helvetica,sans-Serif" font-size="10.00" fill="#ffffff">requests</text>
</g>
<!-- fastapi_requests&#45;&gt;fastapi -->
<g id="edge11" class="edge">
<title>fastapi_requests&#45;&gt;fastapi</title><style>.edge>path:hover{stroke-width:8}</style>
<path fill="none" stroke="black" d="M65.88,-187.88C89.93,-175.25 124.5,-157.08 149.25,-144.07"/>
<polygon fill="#b83d3d" stroke="black" points="150.63,-147.3 157.86,-139.55 147.38,-141.1 150.63,-147.3"/>
</g>
<!-- fastapi_requests&#45;&gt;route_py -->
<g id="edge12" class="edge">
<title>fastapi_requests&#45;&gt;route_py</title><style>.edge>path:hover{stroke-width:8}</style>
<path fill="none" stroke="black" d="M124.83,-72C122.99,-64.27 122.39,-55.73 122.41,-47.8"/>
<polygon fill="#b83d3d" stroke="black" points="125.9,-48.05 122.76,-37.93 118.9,-47.8 125.9,-48.05"/>
<path fill="none" stroke="black" d="M61.75,-185.77C91.12,-162.77 135.81,-119.14 124.83,-73"/>
</g>
<!-- fastapi_responses -->
<g id="node8" class="node">
<title>fastapi_responses</title><style>.edge>path:hover{stroke-width:8}</style>
<ellipse fill="#b34c4c" stroke="black" cx="468.83" cy="-284.88" rx="43.13" ry="22.63"/>
<text text-anchor="middle" x="468.83" y="-287.38" font-family="Helvetica,sans-Serif" font-size="10.00" fill="#ffffff">fastapi.</text>
<text text-anchor="middle" x="468.83" y="-275.38" font-family="Helvetica,sans-Serif" font-size="10.00" fill="#ffffff">responses</text>
</g>
<!-- fastapi_responses&#45;&gt;fastapi -->
<g id="edge13" class="edge">
<title>fastapi_responses&#45;&gt;fastapi</title><style>.edge>path:hover{stroke-width:8}</style>
<path fill="none" stroke="black" d="M453.31,-263.53C439.78,-246.59 419.05,-222.44 397.83,-204.63"/>
</g>
<!-- fastapi_routing&#45;&gt;fastapi -->
<g id="edge14" class="edge">
<title>fastapi_routing&#45;&gt;fastapi</title><style>.edge>path:hover{stroke-width:8}</style>
<path fill="none" stroke="black" d="M307.69,-271.61C347.76,-253.22 415.08,-219.11 397.83,-204.63"/>
<path fill="none" stroke="black" d="M397.83,-202.63C388.03,-194.4 389.7,-187.74 378.83,-181 328.67,-149.89 260.44,-136.86 218.31,-131.53"/>
<polygon fill="#993333" stroke="black" points="218.74,-128.06 208.41,-130.38 217.93,-135.01 218.74,-128.06"/>
</g>
<!-- fastapi_routing&#45;&gt;fastapi_applications -->
<g id="edge15" class="edge">
<title>fastapi_routing&#45;&gt;fastapi_applications</title><style>.edge>path:hover{stroke-width:8}</style>
<path fill="none" stroke="black" d="M254.84,-269.53C234.31,-257.74 204.87,-240.83 181.19,-227.23"/>
<polygon fill="#993333" stroke="black" points="183.16,-224.33 172.74,-222.38 179.67,-230.4 183.16,-224.33"/>
</g>
<!-- fastapi_websockets -->
<g id="node10" class="node">
<title>fastapi_websockets</title><style>.edge>path:hover{stroke-width:8}</style>
<ellipse fill="#b34c4c" stroke="black" cx="511.83" cy="-366.14" rx="47.91" ry="22.63"/>
<text text-anchor="middle" x="511.83" y="-368.64" font-family="Helvetica,sans-Serif" font-size="10.00" fill="#ffffff">fastapi.</text>
<text text-anchor="middle" x="511.83" y="-356.64" font-family="Helvetica,sans-Serif" font-size="10.00" fill="#ffffff">websockets</text>
</g>
<!-- fastapi_websockets&#45;&gt;fastapi -->
<g id="edge16" class="edge">
<title>fastapi_websockets&#45;&gt;fastapi</title><style>.edge>path:hover{stroke-width:8}</style>
<path fill="none" stroke="black" d="M528.73,-344.66C540.41,-327.87 551.87,-303.99 539.83,-285.88"/>
<path fill="none" stroke="black" d="M539.83,-283.88C499.81,-223.7 453.18,-251.1 397.83,-204.63"/>
</g>
<!-- starlette -->
<g id="node12" class="node">
<title>starlette</title><style>.edge>path:hover{stroke-width:8}</style>
<ellipse fill="#1010f9" stroke="black" cx="231.83" cy="-524.02" rx="30.82" ry="18"/>
<text text-anchor="middle" x="231.83" y="-520.52" font-family="Helvetica,sans-Serif" font-size="10.00" fill="#ffffff">starlette</text>
</g>
<!-- starlette&#45;&gt;fastapi -->
<g id="edge17" class="edge">
<title>starlette&#45;&gt;fastapi</title><style>.edge>path:hover{stroke-width:8}</style>
<path fill="none" stroke="black" d="M587.83,-365.14C594.15,-345.54 551.23,-303.03 539.83,-285.88"/>
<path fill="none" stroke="black" d="M511.83,-446.39C542.77,-408.65 572.86,-413.59 587.83,-367.14"/>
</g>
<!-- starlette&#45;&gt;fastapi_applications -->
<g id="edge18" class="edge">
<title>starlette&#45;&gt;fastapi_applications</title><style>.edge>path:hover{stroke-width:8}</style>
<path fill="none" stroke="black" d="M47.83,-365.14C52.31,-326.33 70.02,-321.61 85.83,-285.88"/>
<path fill="none" stroke="black" d="M85.83,-283.88C93.72,-266.06 105.91,-248.17 116.9,-233.9"/>
<polygon fill="#1010f9" stroke="black" points="119.48,-236.28 122.96,-226.27 114,-231.93 119.48,-236.28"/>
</g>
<!-- starlette&#45;&gt;fastapi_background -->
<g id="edge19" class="edge">
<title>starlette&#45;&gt;fastapi_background</title><style>.edge>path:hover{stroke-width:8}</style>
<path fill="none" stroke="black" d="M587.83,-365.14C592.79,-349.74 598.54,-332.76 603.45,-318.48"/>
<polygon fill="#1010f9" stroke="black" points="606.73,-319.71 606.69,-309.11 600.12,-317.42 606.73,-319.71"/>
</g>
<!-- starlette&#45;&gt;fastapi_datastructures -->
<g id="edge20" class="edge">
<title>starlette&#45;&gt;fastapi_datastructures</title><style>.edge>path:hover{stroke-width:8}</style>
<path fill="none" stroke="black" d="M231.83,-446.39C232.32,-422.43 250.68,-403.48 270.01,-390.13"/>
<polygon fill="#1010f9" stroke="black" points="271.71,-393.2 278.23,-384.85 267.92,-387.31 271.71,-393.2"/>
</g>
<!-- starlette&#45;&gt;fastapi_exceptions -->
<g id="edge21" class="edge">
<title>starlette&#45;&gt;fastapi_exceptions</title><style>.edge>path:hover{stroke-width:8}</style>
<path fill="none" stroke="black" d="M231.83,-446.39C232.3,-423.3 215.34,-404.04 197.64,-390.3"/>
<polygon fill="#1010f9" stroke="black" points="199.79,-387.53 189.64,-384.51 195.69,-393.21 199.79,-387.53"/>
<path fill="none" stroke="black" d="M231.63,-505.53C231.5,-490.4 231.43,-467.95 231.83,-448.39"/>
</g>
<!-- starlette&#45;&gt;fastapi_requests -->
<g id="edge22" class="edge">
<title>starlette&#45;&gt;fastapi_requests</title><style>.edge>path:hover{stroke-width:8}</style>
<path fill="none" stroke="black" d="M201.91,-518.56C171.03,-512.53 123.21,-498.97 92.83,-470.02 56.7,-435.59 42.11,-416.72 47.83,-367.14"/>
<path fill="none" stroke="black" d="M47.83,-365.14C46.23,-329.95 54,-320.56 47.83,-285.88"/>
<path fill="none" stroke="black" d="M47.83,-283.88C45.15,-268.84 42.93,-252.07 41.26,-237.84"/>
<polygon fill="#1010f9" stroke="black" points="44.76,-237.63 40.17,-228.09 37.81,-238.42 44.76,-237.63"/>
</g>
<!-- starlette&#45;&gt;fastapi_responses -->
<g id="edge23" class="edge">
<title>starlette&#45;&gt;fastapi_responses</title><style>.edge>path:hover{stroke-width:8}</style>
<path fill="none" stroke="black" d="M261.78,-519.61C327.58,-511.44 481.31,-488.39 511.83,-448.39"/>
<path fill="none" stroke="black" d="M511.83,-446.39C533.68,-417.75 468.53,-422.08 454.83,-388.76 445.58,-366.26 449.98,-338.88 456.2,-318.02"/>
<polygon fill="#1010f9" stroke="black" points="459.5,-319.21 459.3,-308.62 452.85,-317.02 459.5,-319.21"/>
</g>
<!-- starlette&#45;&gt;fastapi_routing -->
<g id="edge24" class="edge">
<title>starlette&#45;&gt;fastapi_routing</title><style>.edge>path:hover{stroke-width:8}</style>
<path fill="none" stroke="black" d="M231.83,-446.39C232.55,-411.17 220.75,-400.57 231.83,-367.14"/>
</g>
<!-- starlette&#45;&gt;fastapi_websockets -->
<g id="edge25" class="edge">
<title>starlette&#45;&gt;fastapi_websockets</title><style>.edge>path:hover{stroke-width:8}</style>
<path fill="none" stroke="black" d="M511.83,-446.39C521.67,-433.49 522.45,-415.66 520.42,-400.17"/>
<polygon fill="#1010f9" stroke="black" points="523.88,-399.64 518.69,-390.4 516.99,-400.86 523.88,-399.64"/>
</g>
<!-- starlette_requests -->
<g id="node13" class="node">
<title>starlette_requests</title><style>.edge>path:hover{stroke-width:8}</style>
<ellipse fill="#3333cc" stroke="black" cx="139.83" cy="-447.39" rx="38.36" ry="22.63"/>
<text text-anchor="middle" x="139.83" y="-449.89" font-family="Helvetica,sans-Serif" font-size="10.00" fill="#ffffff">starlette.</text>
<text text-anchor="middle" x="139.83" y="-437.89" font-family="Helvetica,sans-Serif" font-size="10.00" fill="#ffffff">requests</text>
</g>
<!-- starlette_requests&#45;&gt;fastapi_applications -->
<g id="edge26" class="edge">
<title>starlette_requests&#45;&gt;fastapi_applications</title><style>.edge>path:hover{stroke-width:8}</style>
<path fill="none" stroke="black" d="M85.83,-365.14C71.85,-332.81 71.58,-318.09 85.83,-285.88"/>
</g>
<!-- starlette_requests&#45;&gt;fastapi_requests -->
<g id="edge27" class="edge">
<title>starlette_requests&#45;&gt;fastapi_requests</title><style>.edge>path:hover{stroke-width:8}</style>
<path fill="none" stroke="black" d="M85.83,-365.14C70.33,-329.28 54.67,-324.34 47.83,-285.88"/>
<path fill="none" stroke="black" d="M123.33,-426.79C111.24,-411.47 95.35,-389.14 85.83,-367.14"/>
</g>
<!-- starlette_requests&#45;&gt;fastapi_routing -->
<g id="edge28" class="edge">
<title>starlette_requests&#45;&gt;fastapi_routing</title><style>.edge>path:hover{stroke-width:8}</style>
<path fill="none" stroke="black" d="M231.83,-365.14C237.75,-347.27 248.28,-329.18 257.98,-314.8"/>
<polygon fill="#3333cc" stroke="black" points="260.76,-316.93 263.62,-306.73 255.02,-312.92 260.76,-316.93"/>
<path fill="none" stroke="black" d="M168.97,-432.32C192.01,-419.21 221.89,-397.16 231.83,-367.14"/>
</g>
<!-- starlette_status -->
<g id="node14" class="node">
<title>starlette_status</title><style>.edge>path:hover{stroke-width:8}</style>
<ellipse fill="#4040c0" stroke="black" cx="297.83" cy="-447.39" rx="38.36" ry="22.63"/>
<text text-anchor="middle" x="297.83" y="-449.89" font-family="Helvetica,sans-Serif" font-size="10.00" fill="#ffffff">starlette.</text>
<text text-anchor="middle" x="297.83" y="-437.89" font-family="Helvetica,sans-Serif" font-size="10.00" fill="#ffffff">status</text>
</g>
<!-- starlette_status&#45;&gt;fastapi -->
<g id="edge29" class="edge">
<title>starlette_status&#45;&gt;fastapi</title><style>.edge>path:hover{stroke-width:8}</style>
<path fill="none" stroke="black" d="M327.95,-433C345.86,-423.38 367.27,-408.6 378.83,-388.76 399.54,-353.22 429.34,-231.08 397.83,-204.63"/>
</g>
<!-- starlette_status&#45;&gt;fastapi_routing -->
<g id="edge30" class="edge">
<title>starlette_status&#45;&gt;fastapi_routing</title><style>.edge>path:hover{stroke-width:8}</style>
<path fill="none" stroke="black" d="M270.62,-431.14C248.8,-416.68 223.16,-393.31 231.83,-367.14"/>
</g>
</g>
</svg>
